<svg width="32" height="32" viewBox="0 0 32 32" fill="none" xmlns="http://www.w3.org/2000/svg">
<path d="M26.666 0H5.334C3.92063 0.00422061 2.56636 0.567549 1.56695 1.56695C0.567549 2.56636 0.00422061 3.92063 0 5.334L0 26.666C0 29.6 2.4 32 5.334 32H26.666C29.602 32 32 29.6 32 26.666V5.334C31.9963 3.92047 31.4331 2.56589 30.4336 1.56637C29.4341 0.566856 28.0795 0.00369552 26.666 0ZM8 8H24C24.288 8.00133 24.5607 8.06 24.818 8.176L16 18.462L7.182 8.176C7.43921 8.06031 7.71797 8.00034 8 8ZM6 22V10L6.004 9.874L11.868 16.716L6.068 22.516C6.02295 22.3477 6.00009 22.1742 6 22ZM24 24H8C7.82267 24 7.65067 23.9773 7.484 23.932L13.176 18.24L16.002 21.536L18.828 18.24L24.52 23.932C24.3517 23.977 24.1782 23.9999 24.004 24H24ZM26 22C26 22.1773 25.9773 22.3493 25.932 22.516L20.132 16.716L25.996 9.874L26 10V22Z" fill="white"/>
</svg>
