<svg width="32" height="32" viewBox="0 0 32 32" fill="none" xmlns="http://www.w3.org/2000/svg">
<path fill-rule="evenodd" clip-rule="evenodd" d="M5 0C2.23858 0 0 2.23858 0 5V27C0 29.7614 2.23858 32 5 32H27C29.7614 32 32 29.7614 32 27V5C32 2.23858 29.7614 0 27 0H5ZM11.9664 7.00014C12.6987 6.9923 13.3892 7.31051 13.8879 8.01668L13.8888 8.01581C13.9746 8.13596 14.0618 8.25512 14.1503 8.37326C14.5025 8.84578 14.9524 9.4517 15.2174 10.0611C15.3944 10.4691 15.5182 10.9364 15.4729 11.4333C15.4267 11.9442 15.207 12.4272 14.7946 12.8614C14.4895 13.1831 14.4031 13.6495 14.5984 14.2842C14.7963 14.925 15.2593 15.6346 15.8713 16.2414C16.4833 16.85 17.1877 17.2998 17.8137 17.4812C18.4292 17.659 18.8668 17.5614 19.1641 17.2475C19.5503 16.8412 19.9967 16.6146 20.4771 16.5483C20.9409 16.4847 21.3864 16.578 21.7761 16.7201C22.155 16.8655 22.5195 17.0458 22.865 17.2588C22.9963 17.3374 23.1098 17.4081 23.2153 17.4737C23.2455 17.4926 23.2752 17.511 23.3044 17.5291C23.4515 17.622 23.6003 17.7121 23.7507 17.7994C24.477 18.2178 24.8719 18.849 24.973 19.5552C25.0707 20.2326 24.8937 20.9283 24.5973 21.5316C24.2912 22.1462 23.8631 22.692 23.3392 23.1358C22.8327 23.5612 22.2129 23.8951 21.5572 23.9596C18.213 24.2892 14.9009 22.5647 12.4206 20.0835C9.93858 17.5997 8.17142 14.2432 8.00316 11.1021C7.96828 10.4491 8.22634 9.78037 8.58378 9.21456C8.96257 8.62032 9.45391 8.10589 10.0301 7.70021C10.5951 7.30441 11.2716 7.00712 11.9664 7.00014Z" fill="white"/>
</svg>
