<svg width="33" height="32" viewBox="0 0 33 32" fill="none" xmlns="http://www.w3.org/2000/svg">
<path d="M21.2863 0H11.4637C2.49993 0 0.375 2.12493 0.375 11.0887V20.9113C0.375 29.8751 2.49993 32 11.4637 32H21.2863C30.2501 32 32.375 29.8751 32.375 20.9113V11.0887C32.375 2.12493 30.2291 0 21.2863 0ZM26.2082 22.8273H23.8853C23.0053 22.8273 22.7343 22.1293 21.1513 20.5254C19.7764 19.1924 19.1674 19.0154 18.8284 19.0154C18.3494 19.0154 18.2134 19.1504 18.2134 19.8074V21.9063C18.2134 22.4693 18.0364 22.8073 16.5465 22.8073C14.0826 22.8073 11.3487 21.3173 9.43172 18.5414C6.54081 14.4735 5.74983 11.4266 5.74983 10.7967C5.74983 10.4577 5.88483 10.1407 6.53581 10.1407H8.86374C9.45272 10.1407 9.67671 10.4117 9.9057 11.0417C11.0567 14.3646 12.9736 17.2755 13.7646 17.2755C14.0566 17.2755 14.1916 17.1405 14.1916 16.3955V12.9636C14.1026 11.3806 13.2696 11.2446 13.2696 10.6827C13.2696 10.4117 13.4936 10.1407 13.8526 10.1407H17.5135C18.0084 10.1407 18.1904 10.4117 18.1904 10.9947V15.6245C18.1904 16.1245 18.4144 16.3015 18.5494 16.3015C18.8414 16.3015 19.0914 16.1245 19.6324 15.5825C21.3043 13.7076 22.5023 10.8167 22.5023 10.8167C22.6583 10.4777 22.9293 10.1607 23.5183 10.1607H25.8462C26.5442 10.1607 26.7002 10.5197 26.5442 11.0197C26.2522 12.3736 23.4033 16.3945 23.4033 16.3945C23.1583 16.8005 23.0643 16.9775 23.4033 17.4305C23.6533 17.7694 24.4662 18.4724 25.0072 19.1024C26.0022 20.2324 26.7672 21.1803 26.9712 21.8363C27.2002 22.4873 26.8622 22.8263 26.2052 22.8263L26.2082 22.8273Z" fill="white"/>
</svg>
