<svg xmlns="http://www.w3.org/2000/svg" version="1.1" xmlns:xlink="http://www.w3.org/1999/xlink" width="293" height="292"><svg width="293" height="292" viewBox="0 0 293 292" fill="none" xmlns="http://www.w3.org/2000/svg">
<path d="M96.4725 240.84H52.841C52.841 240.84 49.0477 240.133 50.2321 237.781C51.4165 235.43 50 53.2151 50 53.2151C50 53.2151 53.0731 47.9157 57.5787 52.1584C62.0843 56.4012 223.086 208.829 223.086 208.829C223.086 208.829 228.303 211.888 228.896 205.413C229.488 198.937 228.896 66.8729 228.896 66.8729C228.896 66.8729 228.183 63.4565 225.454 63.9332C222.725 64.4099 209.209 64.0524 209.209 64.0524C209.209 64.0524 206.6 64.7595 206.84 66.7617C207.08 68.7638 206.96 155.04 206.96 155.04C206.96 155.04 205.183 158.512 200.438 155.779C195.692 153.046 93.7356 54.7565 93.7356 54.7565C93.7356 54.7565 91.8389 51.5864 95.8723 50.5217C99.9058 49.4571 107.612 50.5217 107.612 50.5217L188.945 125.731C188.945 125.731 193.099 127.495 192.979 123.609C192.859 119.724 193.099 53.3423 193.099 53.3423C193.099 53.3423 193.339 50.1721 196.772 50.053C200.205 49.9338 239.219 50.053 239.219 50.053C239.219 50.053 243.133 50.7601 242.661 53.6998C242.188 56.6395 242.701 238.028 242.701 238.028C242.701 238.028 241.708 241.913 236.498 240.38C231.281 238.846 68.7347 81.2378 68.7347 81.2378C68.7347 81.2378 64.9413 79.4739 63.5168 83.3591C62.0923 87.2443 63.2767 223.432 63.2767 223.432C63.2767 223.432 63.5168 227.198 66.5979 226.96C69.679 226.722 83.9081 227.079 83.9081 227.079C83.9081 227.079 86.1569 227.079 86.2769 222.725C86.3969 218.371 86.1569 137.037 86.1569 137.037C86.1569 137.037 88.2936 132.802 92.207 135.392C96.1204 137.982 199.501 236.741 199.501 236.741C199.501 236.741 200.926 240.387 197.845 240.864C194.764 241.341 185.392 240.864 185.392 240.864L103.707 164.94C103.707 164.94 100.858 163.883 100.034 166.235C99.2095 168.587 100.154 237.567 100.154 237.567C100.154 237.567 99.9138 241.452 96.4805 240.864L96.4725 240.84Z" fill="white"></path>
</svg><style>@media (prefers-color-scheme: light) { :root { filter: none; } }
@media (prefers-color-scheme: dark) { :root { filter: none; } }
</style></svg>