<svg width="24" height="24" viewBox="0 0 24 24" fill="none" xmlns="http://www.w3.org/2000/svg">
<path fill-rule="evenodd" clip-rule="evenodd" d="M18.9044 19.5734V19.5714L18.9224 19.5284L21.9214 4.40838V4.36038C21.9214 3.98338 21.7814 3.65438 21.4794 3.45738C21.2144 3.28438 20.9094 3.27238 20.6954 3.28838C20.4962 3.30656 20.2996 3.3468 20.1094 3.40838C20.0281 3.43429 19.9481 3.46365 19.8694 3.49638L19.8564 3.50138L3.13636 10.0604L3.13136 10.0624C3.08013 10.0787 3.0303 10.0991 2.98236 10.1234C2.86351 10.1769 2.74943 10.2405 2.64136 10.3134C2.42636 10.4614 2.01736 10.8094 2.08636 11.3614C2.14336 11.8194 2.45836 12.1094 2.67136 12.2604C2.7968 12.3489 2.93202 12.4228 3.07436 12.4804L3.10636 12.4944L3.11636 12.4974L3.12336 12.5004L6.04936 13.4854C6.03869 13.6694 6.05769 13.8544 6.10636 14.0404L7.57136 19.5994C7.65139 19.9024 7.82433 20.1727 8.06588 20.3724C8.30743 20.5721 8.60547 20.6911 8.91813 20.7128C9.2308 20.7344 9.54238 20.6575 9.80912 20.493C10.0759 20.3285 10.2844 20.0845 10.4054 19.7954L12.6934 17.3494L16.6224 20.3614L16.6784 20.3854C17.0354 20.5414 17.3684 20.5904 17.6734 20.5494C17.9784 20.5074 18.2204 20.3794 18.4024 20.2344C18.6129 20.0638 18.7807 19.8463 18.8924 19.5994L18.9004 19.5824L18.9034 19.5764L18.9044 19.5734ZM7.55636 13.6584C7.54013 13.5967 7.54399 13.5315 7.56737 13.4721C7.59074 13.4128 7.63242 13.3624 7.68636 13.3284L17.6074 7.02838C17.6074 7.02838 18.1914 6.67338 18.1704 7.02838C18.1704 7.02838 18.2744 7.09038 17.9614 7.38138C17.6654 7.65838 10.8904 14.1994 10.2044 14.8614C10.1671 14.8991 10.1406 14.946 10.1274 14.9974L9.02136 19.2174L7.55636 13.6584Z" fill="white"/>
</svg>
