<svg width="24" height="24" viewBox="0 0 24 24" fill="none" xmlns="http://www.w3.org/2000/svg">
<path d="M21.5833 18.19H19.3013C18.4383 18.19 18.1783 17.491 16.6313 15.943C15.2793 14.64 14.7083 14.478 14.3663 14.478C13.8933 14.478 13.7643 14.608 13.7643 15.259V17.311C13.7643 17.866 13.5843 18.191 12.1343 18.191C10.7276 18.0965 9.36344 17.6692 8.15425 16.9442C6.94506 16.2192 5.92541 15.2173 5.17928 14.021C3.4083 11.8157 2.17569 9.22787 1.57928 6.46303C1.57928 6.12103 1.70928 5.81103 2.36128 5.81103H4.64128C5.22728 5.81103 5.43828 6.07203 5.66828 6.67503C6.77528 9.93303 8.66428 12.767 9.43128 12.767C9.72528 12.767 9.85328 12.637 9.85328 11.904V8.54803C9.75628 7.01703 8.94328 6.88803 8.94328 6.33403C8.95357 6.18787 9.02043 6.05148 9.12966 5.95382C9.23889 5.85617 9.38189 5.80494 9.52829 5.81103H13.1123C13.6023 5.81103 13.7643 6.05503 13.7643 6.64103V11.171C13.7643 11.66 13.9743 11.822 14.1223 11.822C14.4163 11.822 14.6423 11.66 15.1813 11.122C16.3362 9.71269 17.28 8.14294 17.9833 6.46203C18.0549 6.25999 18.1908 6.08702 18.3702 5.96962C18.5496 5.85221 18.7625 5.79686 18.9763 5.81203H21.2573C21.9413 5.81203 22.0863 6.15403 21.9413 6.64203C21.1114 8.50033 20.0849 10.2644 18.8793 11.904C18.6333 12.279 18.5353 12.474 18.8793 12.914C19.1053 13.256 19.9053 13.924 20.4423 14.559C21.2243 15.339 21.8733 16.241 22.3643 17.229C22.5603 17.865 22.2343 18.19 21.5833 18.19Z" fill="white"/>
</svg>
