<svg width="160" height="50" viewBox="0 0 160 50" fill="none" xmlns="http://www.w3.org/2000/svg">
<rect width="160" height="50" fill="white"/>
<path d="M3.73031 32.8464C2.54092 33.5477 2.14519 35.0803 2.84643 36.2697C3.54766 37.4591 5.08031 37.8548 6.26969 37.1536L3.73031 32.8464ZM155.737 37.389C157.056 36.9821 157.796 35.5827 157.389 34.2633L150.759 12.7624C150.352 11.443 148.952 10.7033 147.633 11.1101C146.314 11.517 145.574 12.9164 145.981 14.2358L151.874 33.3477L132.762 39.2414C131.443 39.6482 130.703 41.0477 131.11 42.3671C131.517 43.6865 132.916 44.4262 134.236 44.0194L155.737 37.389ZM5 35C6.26969 37.1536 6.26929 37.1538 6.26902 37.154C6.2691 37.1539 6.26896 37.154 6.26912 37.1539C6.26944 37.1537 6.27028 37.1532 6.27163 37.1524C6.27432 37.1509 6.27907 37.1481 6.28585 37.1441C6.29942 37.1362 6.32113 37.1235 6.35087 37.1063C6.41036 37.0719 6.50197 37.0192 6.62483 36.9494C6.87057 36.8099 7.24125 36.6022 7.72989 36.3361C8.70725 35.8037 10.1559 35.0377 12.0199 34.116C15.7491 32.2718 21.1338 29.8072 27.7271 27.3416C40.9351 22.4025 58.886 17.5 78.0439 17.5V12.5C58.0806 12.5 39.5096 17.5975 25.9759 22.6584C19.1984 25.1928 13.6574 27.7282 9.80348 29.634C7.87595 30.5873 6.36876 31.3838 5.33816 31.9452C4.82281 32.2259 4.42649 32.4479 4.1562 32.6013C4.02106 32.6781 3.91741 32.7377 3.84614 32.7789C3.8105 32.7996 3.78296 32.8156 3.76362 32.8269C3.75395 32.8325 3.74633 32.837 3.74077 32.8403C3.73799 32.8419 3.73573 32.8432 3.73398 32.8443C3.73311 32.8448 3.73219 32.8453 3.73176 32.8456C3.73097 32.846 3.73031 32.8464 5 35ZM78.0439 17.5C97.2139 17.5 116.156 22.4077 130.37 27.3608C137.463 29.8323 143.345 32.3035 147.449 34.154C149.501 35.079 151.106 35.8481 152.194 36.3836C152.738 36.6513 153.152 36.8605 153.428 37.0016C153.566 37.0721 153.669 37.1255 153.737 37.1607C153.771 37.1783 153.796 37.1913 153.812 37.1996C153.819 37.2038 153.825 37.2067 153.828 37.2085C153.83 37.2094 153.831 37.21 153.832 37.2103C153.832 37.2104 153.832 37.2104 153.832 37.2105C153.832 37.2104 153.832 37.2102 155 35C156.168 32.7898 156.168 32.7895 156.167 32.7891C156.167 32.7888 156.166 32.7884 156.165 32.7879C156.163 32.787 156.161 32.7857 156.158 32.7842C156.152 32.7811 156.144 32.7768 156.133 32.7714C156.112 32.7605 156.083 32.7448 156.044 32.7245C155.966 32.684 155.852 32.6252 155.703 32.5492C155.406 32.3973 154.969 32.1768 154.402 31.8977C153.268 31.3394 151.612 30.546 149.505 29.596C145.292 27.6965 139.271 25.1677 132.015 22.6392C117.531 17.5923 97.9951 12.5 78.0439 12.5V17.5Z" fill="#B5894F"/>
</svg>
