<?xml version="1.0" encoding="UTF-8"?>
<svg id="_Слой_2" data-name="Слой 2" xmlns="http://www.w3.org/2000/svg" viewBox="0 0 523.46 468.68">
  <defs>
    <style>
      .cls-1 {
        fill: #1d1d1b;
      }
    </style>
  </defs>
  <g id="_Слой_1-2" data-name="Слой 1">
    <g>
      <path class="cls-1" d="M205.42,240.21h-54.52s-4.74-.89-3.26-3.85-.29-232.3-.29-232.3c0,0,3.84-6.67,9.47-1.33s206.81,197.19,206.81,197.19c0,0,6.52,3.85,7.26-4.3s0-174.37,0-174.37c0,0-.89-4.3-4.3-3.7s-20.3.15-20.3.15c0,0-3.26.89-2.96,3.41s.15,111.11.15,111.11c0,0-2.22,4.37-8.15.93-5.93-3.44-133.33-127.15-133.33-127.15,0,0-2.37-3.99,2.67-5.33s14.67,0,14.67,0l101.63,94.66s5.19,2.22,5.04-2.67.15-88.44.15-88.44c0,0,.3-3.99,4.59-4.14s53.04,0,53.04,0c0,0,4.89.89,4.3,4.59s.05,232,.05,232c0,0-1.24,4.89-7.75,2.96-6.52-1.93-209.63-200.3-209.63-200.3,0,0-4.74-2.22-6.52,2.67s-.3,176.3-.3,176.3c0,0,.3,4.74,4.15,4.44s21.63.15,21.63.15c0,0,2.81,0,2.96-5.48s-.15-107.85-.15-107.85c0,0,2.67-5.33,7.56-2.07s134.07,127.56,134.07,127.56c0,0,1.78,4.59-2.07,5.19s-15.56,0-15.56,0l-102.07-95.56s-3.56-1.33-4.59,1.63.15,89.78.15,89.78c0,0-.3,4.89-4.59,4.15Z"/>
      <g>
        <path class="cls-1" d="M107.43,467.16c-3.04-1.01-5.41-2.29-7.12-3.84l1.84-3.2c1.71,1.44,3.91,2.64,6.6,3.6,2.69.96,5.51,1.44,8.44,1.44,4.21,0,7.32-.69,9.32-2.08,2-1.39,3-3.31,3-5.76,0-1.76-.55-3.15-1.64-4.16-1.09-1.01-2.44-1.76-4.04-2.24-1.6-.48-3.81-.99-6.64-1.52-3.31-.59-5.97-1.23-8-1.92-2.03-.69-3.76-1.81-5.2-3.36-1.44-1.55-2.16-3.68-2.16-6.4,0-3.31,1.37-6.04,4.12-8.2,2.75-2.16,6.65-3.24,11.72-3.24,2.67,0,5.31.37,7.92,1.12,2.61.75,4.75,1.73,6.4,2.96l-1.84,3.2c-1.71-1.23-3.65-2.16-5.84-2.8-2.19-.64-4.43-.96-6.72-.96-3.89,0-6.83.72-8.8,2.16-1.97,1.44-2.96,3.33-2.96,5.68,0,1.87.56,3.32,1.68,4.36s2.49,1.81,4.12,2.32c1.63.51,3.91,1.05,6.84,1.64,3.25.59,5.88,1.21,7.88,1.88s3.69,1.75,5.08,3.24c1.39,1.49,2.08,3.55,2.08,6.16,0,3.47-1.44,6.24-4.32,8.32-2.88,2.08-6.93,3.12-12.16,3.12-3.36,0-6.56-.51-9.6-1.52Z"/>
        <path class="cls-1" d="M166.39,465.96c-3.2-1.81-5.71-4.33-7.52-7.56-1.81-3.23-2.72-6.87-2.72-10.92s.91-7.77,2.72-11c1.81-3.23,4.32-5.73,7.52-7.52,3.2-1.79,6.83-2.68,10.88-2.68,3.36,0,6.41.65,9.16,1.96,2.75,1.31,4.97,3.21,6.68,5.72l-2.96,2.16c-1.49-2.08-3.35-3.64-5.56-4.68-2.21-1.04-4.65-1.56-7.32-1.56-3.25,0-6.17.73-8.76,2.2-2.59,1.47-4.61,3.53-6.08,6.2-1.47,2.67-2.2,5.73-2.2,9.2s.73,6.53,2.2,9.2c1.47,2.67,3.49,4.73,6.08,6.2,2.59,1.47,5.51,2.2,8.76,2.2,2.67,0,5.11-.52,7.32-1.56,2.21-1.04,4.07-2.6,5.56-4.68l2.96,2.16c-1.71,2.51-3.93,4.41-6.68,5.72-2.75,1.31-5.8,1.96-9.16,1.96-4.05,0-7.68-.91-10.88-2.72Z"/>
        <path class="cls-1" d="M253.19,430.84c3.04,3.04,4.56,7.41,4.56,13.12v24.4h-4v-24.08c0-4.69-1.19-8.27-3.56-10.72-2.37-2.45-5.69-3.68-9.96-3.68-4.91,0-8.77,1.47-11.6,4.4-2.83,2.93-4.24,6.88-4.24,11.84v22.24h-4v-59.36h4v26.32c1.44-2.88,3.57-5.11,6.4-6.68,2.83-1.57,6.16-2.36,10-2.36,5.23,0,9.36,1.52,12.4,4.56Z"/>
        <path class="cls-1" d="M295.95,465.96c-3.17-1.81-5.67-4.33-7.48-7.56-1.81-3.23-2.72-6.87-2.72-10.92s.91-7.69,2.72-10.92c1.81-3.23,4.31-5.75,7.48-7.56,3.17-1.81,6.73-2.72,10.68-2.72s7.51.91,10.68,2.72c3.17,1.81,5.67,4.33,7.48,7.56,1.81,3.23,2.72,6.87,2.72,10.92s-.91,7.69-2.72,10.92c-1.81,3.23-4.31,5.75-7.48,7.56-3.17,1.81-6.73,2.72-10.68,2.72s-7.51-.91-10.68-2.72ZM315.23,462.84c2.53-1.49,4.53-3.57,6-6.24,1.47-2.67,2.2-5.71,2.2-9.12s-.73-6.45-2.2-9.12c-1.47-2.67-3.47-4.75-6-6.24-2.53-1.49-5.4-2.24-8.6-2.24s-6.07.75-8.6,2.24c-2.53,1.49-4.53,3.57-6,6.24-1.47,2.67-2.2,5.71-2.2,9.12s.73,6.45,2.2,9.12c1.47,2.67,3.47,4.75,6,6.24,2.53,1.49,5.4,2.24,8.6,2.24s6.07-.75,8.6-2.24Z"/>
        <path class="cls-1" d="M361.55,465.96c-3.17-1.81-5.67-4.33-7.48-7.56-1.81-3.23-2.72-6.87-2.72-10.92s.91-7.69,2.72-10.92c1.81-3.23,4.31-5.75,7.48-7.56,3.17-1.81,6.73-2.72,10.68-2.72s7.51.91,10.68,2.72c3.17,1.81,5.67,4.33,7.48,7.56,1.81,3.23,2.72,6.87,2.72,10.92s-.91,7.69-2.72,10.92c-1.81,3.23-4.31,5.75-7.48,7.56-3.17,1.81-6.73,2.72-10.68,2.72s-7.51-.91-10.68-2.72ZM380.83,462.84c2.53-1.49,4.53-3.57,6-6.24,1.47-2.67,2.2-5.71,2.2-9.12s-.73-6.45-2.2-9.12c-1.47-2.67-3.47-4.75-6-6.24-2.53-1.49-5.4-2.24-8.6-2.24s-6.07.75-8.6,2.24c-2.53,1.49-4.53,3.57-6,6.24-1.47,2.67-2.2,5.71-2.2,9.12s.73,6.45,2.2,9.12c1.47,2.67,3.47,4.75,6,6.24,2.53,1.49,5.4,2.24,8.6,2.24s6.07-.75,8.6-2.24Z"/>
        <path class="cls-1" d="M421.51,409h4v59.36h-4v-59.36Z"/>
      </g>
      <g>
        <path class="cls-1" d="M84.28,286.67v98h-11.48l-58.8-73.08v73.08H0v-98h11.48l58.8,73.08v-73.08h14Z"/>
        <path class="cls-1" d="M124.39,382.36c-6.86-2.29-12.25-5.25-16.17-8.89l5.18-10.92c3.73,3.36,8.52,6.09,14.35,8.19,5.83,2.1,11.83,3.15,17.99,3.15,8.12,0,14.19-1.38,18.2-4.13,4.01-2.75,6.02-6.42,6.02-10.99,0-3.36-1.1-6.09-3.29-8.19-2.19-2.1-4.9-3.71-8.12-4.83-3.22-1.12-7.77-2.38-13.65-3.78-7.37-1.77-13.32-3.55-17.85-5.32-4.53-1.77-8.4-4.5-11.62-8.19-3.22-3.69-4.83-8.66-4.83-14.91,0-5.23,1.38-9.94,4.13-14.14,2.75-4.2,6.93-7.56,12.53-10.08,5.6-2.52,12.55-3.78,20.86-3.78,5.79,0,11.48.75,17.08,2.24,5.6,1.49,10.41,3.64,14.42,6.44l-4.62,11.2c-4.11-2.61-8.49-4.6-13.16-5.95-4.67-1.35-9.24-2.03-13.72-2.03-7.93,0-13.88,1.45-17.85,4.34-3.97,2.89-5.95,6.63-5.95,11.2,0,3.36,1.12,6.09,3.36,8.19,2.24,2.1,5.02,3.73,8.33,4.9,3.31,1.17,7.82,2.4,13.51,3.71,7.37,1.77,13.3,3.55,17.78,5.32,4.48,1.77,8.33,4.48,11.55,8.12,3.22,3.64,4.83,8.54,4.83,14.7,0,5.13-1.4,9.82-4.2,14.07-2.8,4.25-7.05,7.61-12.74,10.08-5.69,2.47-12.69,3.71-21,3.71-7.37,0-14.49-1.14-21.35-3.43Z"/>
        <path class="cls-1" d="M217.7,374.59c-7.28-7.47-10.92-18.2-10.92-32.2v-55.72h14v55.16c0,21,9.19,31.5,27.58,31.5,8.96,0,15.82-2.59,20.58-7.77,4.76-5.18,7.14-13.09,7.14-23.73v-55.16h13.58v55.72c0,14.09-3.64,24.85-10.92,32.27-7.28,7.42-17.45,11.13-30.52,11.13s-23.24-3.73-30.52-11.2Z"/>
        <path class="cls-1" d="M510.01,384.67l-.14-71.4-35.42,59.5h-6.44l-35.42-59.08v70.98h-13.44v-98h11.48l40.88,68.88,40.32-68.88h11.48l.14,98h-13.44Z"/>
        <g>
          <polygon class="cls-1" points="336.33 296.84 336.33 296.85 391.02 296.85 391.02 284.67 321.86 284.67 321.86 296.84 336.33 296.84"/>
          <path class="cls-1" d="M335.86,370.49v-31.64h49.14v-11.9h-49.14s-14,0-14,0v55.72h71.12v-12.18h-57.12Z"/>
        </g>
      </g>
    </g>
  </g>
</svg>